<svg width="73" height="72" viewBox="0 0 73 72" fill="none" xmlns="http://www.w3.org/2000/svg">
<path d="M54.5 46.8V62.3999C54.5 64.3883 52.8884 65.9999 50.9 65.9999H22.1C20.1116 65.9999 18.5 64.3883 18.5 62.3999V9.6C18.5 7.61156 20.1116 6 22.1 6H50.9C52.8884 6 54.5 7.61156 54.5 9.6V46.8Z" fill="white"/>
<path d="M54.5 15.6001H18.5V56.4H54.5V15.6001Z" fill="#29ABE2"/>
<path d="M6.49966 40.8002H19.6997L26.8997 45.6001V40.8002H30.4997C31.8257 40.8002 32.8997 39.7262 32.8997 38.4001V24.0001C32.8997 22.6742 31.8258 21.6001 30.4997 21.6001H6.49966C5.1737 21.6001 4.09961 22.6741 4.09961 24.0001V38.4001C4.09961 39.7262 5.17356 40.8002 6.49966 40.8002Z" fill="white"/>
<path d="M66.4997 46.8002H53.2997L46.0997 51.6001V46.8002H42.4997C41.1737 46.8002 40.0996 45.7262 40.0996 44.4001V27.6002C40.0996 26.2743 41.1736 25.2002 42.4997 25.2002H66.4997C67.8257 25.2002 68.8997 26.2741 68.8997 27.6002V44.4003C68.8997 45.7262 67.8258 46.8002 66.4997 46.8002Z" fill="#E6E6E6"/>
<path d="M48.5 33.6H52.1V30H56.9001V33.6H60.5001V38.4001H56.9001V42.0001H52.1V38.4001H48.5V33.6Z" fill="white"/>
<path d="M13.7008 25.2002H11.3008V27.6002H13.7008V25.2002Z" fill="black"/>
<path d="M28.0996 25.2002H16.0996V27.6002H28.0996V25.2002Z" fill="black"/>
<path d="M28.1003 30H8.90039V32.4H28.1003V30Z" fill="black"/>
<path d="M23.3004 34.7998H8.90039V37.1998H23.3004V34.7998Z" fill="black"/>
<path d="M37.7008 60H35.3008V62.4H37.7008V60Z" fill="black"/>
<path d="M40.0993 9.6001H37.6992V12.0001H40.0993V9.6001Z" fill="black"/>
<path d="M35.3004 9.6001H32.9004V12.0001H35.3004V9.6001Z" fill="black"/>
<path d="M17.3004 9.60025V20.4002H6.50039C4.51195 20.4002 2.90039 22.0118 2.90039 24.0002V38.4002C2.90039 40.3887 4.51195 42.0002 6.50039 42.0002H17.3004V62.4003C17.3004 65.0511 19.4496 67.2002 22.1003 67.2002H50.9003C53.5511 67.2002 55.7003 65.0511 55.7003 62.4003V48.0003H66.5003C68.4887 48.0003 70.1003 46.3887 70.1003 44.4003V27.6002C70.1003 25.6118 68.4887 24.0002 66.5003 24.0002H55.7003V9.60025C55.7003 6.94946 53.5511 4.80029 50.9003 4.80029H22.1003C19.4496 4.80015 17.3004 6.94946 17.3004 9.60025ZM5.3003 38.4002V24.0002C5.3003 23.3379 5.83791 22.8003 6.50025 22.8003H30.5003C31.1626 22.8003 31.7003 23.3379 31.7003 24.0002V38.4002C31.7003 39.0626 31.1626 39.6002 30.5003 39.6002H26.9003C26.238 39.6002 25.7003 40.1378 25.7003 40.8001V43.3574L20.3663 39.8019C20.1683 39.6711 19.9367 39.6002 19.7003 39.6002H6.50039C5.83791 39.6002 5.3003 39.0626 5.3003 38.4002ZM50.9003 64.8002H22.1003C20.7744 64.8002 19.7003 63.7262 19.7003 62.4001V57.6002H53.3003V62.4001C53.3004 63.7262 52.2263 64.8002 50.9003 64.8002ZM67.7004 27.6002V44.4003C67.7004 45.0626 67.1628 45.6002 66.5004 45.6002H53.3004C53.064 45.6002 52.8324 45.671 52.6344 45.8019L47.3003 49.3575V46.8002C47.3003 46.1379 46.7627 45.6002 46.1004 45.6002H42.5004C41.8381 45.6002 41.3004 45.0626 41.3004 44.4003V27.6002C41.3004 26.9379 41.8381 26.4003 42.5004 26.4003H66.5004C67.1628 26.4001 67.7004 26.9378 67.7004 27.6002ZM42.5004 24.0002C40.512 24.0002 38.9004 25.6118 38.9004 27.6002V44.4003C38.9004 46.3887 40.512 48.0003 42.5004 48.0003H44.9004V51.6003C44.9004 52.2626 45.4381 52.8002 46.1004 52.8002C46.3381 52.8002 46.5697 52.7306 46.7664 52.5986L53.3004 48.2402V55.2001H19.7003V42.2401L26.2343 46.5961C26.7851 46.9646 27.5303 46.8158 27.8987 46.2637C28.0295 46.067 28.1004 45.8365 28.1004 45.6001V42.0001H30.5004C32.4889 42.0001 34.1004 40.3885 34.1004 38.4001V24.0001C34.1004 22.0117 32.4889 20.4001 30.5004 20.4001H19.7004V16.8001H53.3004V24.0001H42.5004V24.0002ZM53.3004 9.60025V14.4002H19.7003V9.60025C19.7003 8.27429 20.7743 7.2002 22.1003 7.2002H50.9003C52.2263 7.2002 53.3004 8.27415 53.3004 9.60025Z" fill="black"/>
<path d="M12.5 63.6C12.5048 68.2369 16.2633 71.9952 20.8999 72V69.6C17.5879 69.5963 14.9036 66.9119 14.8999 63.5999V54H12.5V63.6Z" fill="black"/>
<path d="M14.9 49.2002H12.5V51.6002H14.9V49.2002Z" fill="black"/>
<path d="M60.5001 8.39995C60.4953 3.76327 56.7368 0.00478125 52.1 0H48.5V2.40005H52.1C55.412 2.4037 58.0964 5.08809 58.1 8.40009V14.4H60.5001V8.39995Z" fill="black"/>
<path d="M60.4997 16.7998H58.0996V19.1999H60.4997V16.7998Z" fill="black"/>
<path d="M48.5006 39.6002H50.9006V42.0002C50.9006 42.6625 51.4383 43.2002 52.1006 43.2002H56.9005C57.5629 43.2002 58.1005 42.6625 58.1005 42.0002V39.6002H60.5005C61.1629 39.6002 61.7005 39.0625 61.7005 38.4002V33.6002C61.7005 32.9379 61.1629 32.4003 60.5005 32.4003H58.1006V30.0002C58.1006 29.3379 57.563 28.8003 56.9007 28.8003H52.1007C51.4384 28.8003 50.9008 29.3379 50.9008 30.0002V32.4002H48.5007C47.8384 32.4002 47.3008 32.9378 47.3008 33.6001V38.4001C47.3006 39.0625 47.8383 39.6002 48.5006 39.6002ZM49.7007 34.8002H52.1007C52.7631 34.8002 53.3007 34.2626 53.3007 33.6002V31.2002H55.7007V33.6002C55.7007 34.2626 56.2383 34.8002 56.9007 34.8002H59.3007V37.2002H56.9007C56.2383 37.2002 55.7007 37.7379 55.7007 38.4002V40.8002H53.3007V38.4002C53.3007 37.7379 52.7631 37.2002 52.1007 37.2002H49.7007V34.8002Z" fill="black"/>
</svg>
