<svg width="73" height="72" viewBox="0 0 73 72" fill="none" xmlns="http://www.w3.org/2000/svg">
<g clip-path="url(#clip0_2_4872)">
<g clip-path="url(#clip1_2_4872)">
<g clip-path="url(#clip2_2_4872)">
<g clip-path="url(#clip3_2_4872)">
<path d="M25.5772 36.2025L24.3622 36.5063L21.8759 37.125L21.6059 37.1925C16.9259 38.3625 13.5284 42.3 12.9547 46.9912L10.5247 44.64C5.72094 39.9937 2.94219 33.66 2.77344 27H7.25094L10.6259 36L12.8759 18L16.2509 24.75H19.2547L19.5584 25.6725C18.9059 26.2912 18.5009 27.1575 18.5009 28.125C18.5009 29.0587 18.8834 29.9025 19.4909 30.51C20.0984 31.1175 20.9422 31.5 21.8759 31.5H23.0797H23.0909C23.3272 33.2325 24.1259 34.7625 25.3072 35.9438C25.3972 36.0338 25.4872 36.1237 25.5884 36.1912L25.5772 36.2025Z" fill="#FF826E"/>
</g>
<g clip-path="url(#clip4_2_4872)">
<path d="M36.1621 36.1912C37.4896 35.01 38.4009 33.3563 38.6596 31.5H38.6709H39.8746C40.8084 31.5 41.6521 31.1175 42.2596 30.51C42.6084 30.1613 42.8896 29.7338 43.0471 29.25H43.0584H46.6246L48.8746 34.875L53.3746 14.625L56.7496 27H70.2271C70.0696 33.4688 67.4484 39.6225 62.8921 44.2238C61.0471 43.2788 58.9659 42.75 56.7496 42.75C53.6559 42.75 50.7984 43.785 48.5259 45.54C47.5021 41.5013 44.3296 38.2388 40.1446 37.1925L37.6246 36.5625L37.3884 36.5063L36.1734 36.2025L36.1621 36.1912Z" fill="#FF826E"/>
</g>
<g clip-path="url(#clip5_2_4872)">
<path d="M62.825 8.325C67.5837 13.0837 70.25 19.5187 70.25 26.2463V26.3137C70.25 26.5387 70.25 26.775 70.2275 27H56.75L53.375 14.625L48.875 34.875L46.625 29.25H43.0588H43.0475C43.1825 28.9013 43.25 28.5187 43.25 28.125C43.25 27.1575 42.845 26.2913 42.1925 25.6725L42.755 23.985C43.0812 23.0063 43.25 21.9713 43.25 20.925C43.25 15.5813 38.9187 11.25 33.575 11.25H28.175C25.4975 11.25 23.09 12.33 21.335 14.085C19.58 15.84 18.5 18.2475 18.5 20.925C18.5 21.9713 18.6688 23.0063 18.995 23.985L19.2537 24.75H16.25L12.875 18L10.625 36L7.25 27H2.7725C2.75 26.775 2.75 26.5387 2.75 26.3137V26.2463C2.75 22.8825 3.41375 19.5975 4.67375 16.5487C5.945 13.5 7.79 10.71 10.175 8.325C12.1213 6.37875 14.4163 4.86 16.9025 3.825C19.4 2.79 22.1 2.25 24.845 2.25C28.0737 2.25 31.2462 3.00375 34.1375 4.44375L36.5 5.625L38.8625 4.44375C41.7537 3.00375 44.9263 2.25 48.155 2.25C50.9 2.25 53.6 2.79 56.0975 3.825C58.5837 4.86 60.8787 6.37875 62.825 8.325Z" fill="#FF826E"/>
</g>
<g clip-path="url(#clip6_2_4872)">
<path d="M27.5 20.25L26.105 20.9475C24.575 21.7013 23.495 23.1188 23.135 24.75H21.875C20.975 24.75 20.1538 25.0988 19.5575 25.6725L19.2538 24.75L18.995 23.985C18.6688 23.0063 18.5 21.9713 18.5 20.925C18.5 18.2475 19.58 15.84 21.335 14.085C23.09 12.33 25.4975 11.25 28.175 11.25H33.575C38.9188 11.25 43.25 15.5813 43.25 20.925C43.25 21.9713 43.0813 23.0063 42.755 23.985L42.1925 25.6725C41.5963 25.11 40.775 24.75 39.875 24.75H38.75H38.3675C36.32 24.75 34.3288 24.345 32.4838 23.58C30.6388 22.815 28.94 21.69 27.5 20.25Z" fill="#656D78"/>
</g>
<g clip-path="url(#clip7_2_4872)">
<path d="M30.8752 38.25L34.104 43.6275L30.8752 50.625L27.6465 43.6275L30.8752 38.25Z" fill="#B4DD7F"/>
</g>
<g clip-path="url(#clip8_2_4872)">
<path d="M37.625 36.5626L40.145 37.1926C44.33 38.2388 47.5025 41.5013 48.5262 45.5401C45.32 48.0038 43.25 51.8851 43.25 56.2501C43.25 58.3088 43.7113 60.2551 44.5213 61.9988L36.5 69.7501L30.875 64.3163V50.6251L34.1038 43.6276L37.3888 36.5063L37.625 36.5626Z" fill="#E6E9ED"/>
</g>
<g clip-path="url(#clip9_2_4872)">
<path d="M24.3612 36.5063L27.6462 43.6276L30.875 50.6251V64.3163L17.375 51.2663V50.6251C17.375 48.1388 19.3888 46.1251 21.875 46.1251V37.1251L24.3612 36.5063Z" fill="#E6E9ED"/>
</g>
<g clip-path="url(#clip10_2_4872)">
<path d="M21.8744 37.125V46.125C19.3881 46.125 17.3744 48.1388 17.3744 50.625V51.2663L12.9531 46.9913C13.5269 42.3 16.9244 38.3625 21.6044 37.1925L21.8744 37.125Z" fill="#E6E9ED"/>
</g>
<g clip-path="url(#clip11_2_4872)">
<path d="M25.5876 36.1914C27.5001 37.6764 29.1201 38.2502 30.8751 38.2502L27.6463 43.6277L24.3613 36.5064L25.5763 36.2027L25.5876 36.1914Z" fill="#CCD1D9"/>
</g>
<g clip-path="url(#clip12_2_4872)">
<path d="M37.3887 36.5064L34.1037 43.6277L30.875 38.2502C32.9112 38.2502 34.7675 37.4739 36.1625 36.1914L36.1737 36.2027L37.3887 36.5064Z" fill="#CCD1D9"/>
</g>
<g clip-path="url(#clip13_2_4872)">
<path d="M44.5213 61.9988C43.7113 60.255 43.25 58.3088 43.25 56.25C43.25 51.885 45.32 48.0037 48.5262 45.54C50.7987 43.785 53.6562 42.75 56.75 42.75C58.9662 42.75 61.0475 43.2788 62.8925 44.2238C67.2575 46.4513 70.25 50.9963 70.25 56.25C70.25 63.7087 64.2087 69.75 56.75 69.75C51.35 69.75 46.6813 66.5775 44.5213 61.9988Z" fill="#F0D0B4"/>
</g>
<g clip-path="url(#clip14_2_4872)">
<path d="M37.625 52.875C38.8676 52.875 39.875 51.8676 39.875 50.625C39.875 49.3824 38.8676 48.375 37.625 48.375C36.3824 48.375 35.375 49.3824 35.375 50.625C35.375 51.8676 36.3824 52.875 37.625 52.875Z" fill="#FCD770"/>
</g>
<g clip-path="url(#clip15_2_4872)">
<path d="M63.5 55.125V57.375C63.5 57.9937 62.9937 58.5 62.375 58.5H59V61.875C59 62.4937 58.4937 63 57.875 63H55.625C55.0062 63 54.5 62.4937 54.5 61.875V58.5H51.125C50.5062 58.5 50 57.9937 50 57.375V55.125C50 54.5062 50.5062 54 51.125 54H54.5V50.625C54.5 50.0062 55.0062 49.5 55.625 49.5H57.875C58.4937 49.5 59 50.0062 59 50.625V54H62.375C62.9937 54 63.5 54.5062 63.5 55.125Z" fill="#FCD770"/>
</g>
<g clip-path="url(#clip16_2_4872)">
<path d="M39.8752 24.75C40.7752 24.75 41.5964 25.11 42.1927 25.6725C42.8452 26.2912 43.2502 27.1575 43.2502 28.125C43.2502 28.5187 43.1827 28.9012 43.0477 29.25C42.8902 29.7337 42.6089 30.1613 42.2602 30.51C41.6527 31.1175 40.8089 31.5 39.8752 31.5H38.6714H38.6602C38.7277 31.1287 38.7502 30.7575 38.7502 30.375V24.75H39.8752Z" fill="#F0D0B4"/>
</g>
<g clip-path="url(#clip17_2_4872)">
<path d="M38.75 24.75V30.375C38.75 30.7575 38.7275 31.1287 38.66 31.5C38.4012 33.3562 37.49 35.01 36.1625 36.1912C34.7675 37.4737 32.9113 38.25 30.875 38.25C29.12 38.25 27.5 37.6762 25.5875 36.1912C25.4862 36.1237 25.3962 36.0338 25.3062 35.9438C24.125 34.7625 23.3262 33.2325 23.09 31.5C23.0225 31.1287 23 30.7575 23 30.375V25.9763C23 25.56 23.045 25.1438 23.135 24.75C23.495 23.1188 24.575 21.7013 26.105 20.9475L27.5 20.25C28.94 21.69 30.6388 22.815 32.4838 23.58C34.3288 24.345 36.32 24.75 38.3675 24.75H38.75Z" fill="#F0D0B4"/>
</g>
<g clip-path="url(#clip18_2_4872)">
<path d="M23 30.375C23 30.7575 23.0225 31.1287 23.09 31.5H23.0787H21.875C20.9412 31.5 20.0975 31.1175 19.49 30.51C18.8825 29.9025 18.5 29.0588 18.5 28.125C18.5 27.1575 18.905 26.2912 19.5575 25.6725C20.1538 25.0987 20.975 24.75 21.875 24.75H23.135C23.045 25.1437 23 25.56 23 25.9763V30.375Z" fill="#F0D0B4"/>
</g>
</g>
<g clip-path="url(#clip19_2_4872)">
<path d="M62.375 52.875H60.125V50.625C60.125 49.3841 59.1159 48.375 57.875 48.375H55.625C54.3841 48.375 53.375 49.3841 53.375 50.625V52.875H51.125C49.8841 52.875 48.875 53.8841 48.875 55.125V57.375C48.875 58.6159 49.8841 59.625 51.125 59.625H53.375V61.875C53.375 63.1159 54.3841 64.125 55.625 64.125H57.875C59.1159 64.125 60.125 63.1159 60.125 61.875V59.625H62.375C63.6159 59.625 64.625 58.6159 64.625 57.375V55.125C64.625 53.8841 63.6159 52.875 62.375 52.875ZM62.375 57.375H57.875V61.875H55.625V57.375H51.125V55.125H55.625V50.625H57.875V55.125L62.375 55.1228V57.375Z" fill="black"/>
<path d="M64.67 43.974C69.0024 39.0971 71.375 32.8759 71.375 26.2429C71.375 19.1756 68.6233 12.5314 63.626 7.53525C59.4927 3.40087 53.9971 1.125 48.1505 1.125C44.7699 1.125 41.3859 1.92375 38.363 3.43575L36.5 4.36725L34.637 3.43575C31.613 1.92375 28.229 1.125 24.8495 1.125C19.0029 1.125 13.5084 3.40087 9.374 7.53525C4.37675 12.5314 1.625 19.1756 1.625 26.3104C1.625 33.4856 4.58375 40.4629 9.743 45.45L36.5 71.3149L44.258 63.8156C46.8252 68.0389 51.4569 70.875 56.75 70.875C64.814 70.875 71.375 64.314 71.375 56.25C71.375 51.1054 68.6975 46.5817 64.67 43.974ZM56.75 41.625C53.9566 41.625 51.3534 42.426 49.1315 43.7906C47.6566 39.9926 44.4369 37.1059 40.4172 36.1012L38.2246 35.5534C38.8423 34.6792 39.3035 33.6904 39.5791 32.6261H39.875C41.5332 32.6261 42.9688 31.7149 43.7495 30.3761H45.8645L49.1832 38.6752L53.4864 19.3106L55.8905 28.125H69.0373C68.6323 33.6386 66.3913 38.7855 62.6101 42.8591C60.8135 42.0705 58.8346 41.625 56.75 41.625ZM38.75 50.625C38.75 51.246 38.246 51.75 37.625 51.75C37.004 51.75 36.5 51.246 36.5 50.625C36.5 50.004 37.004 49.5 37.625 49.5C38.246 49.5 38.75 50.004 38.75 50.625ZM14.1789 46.6087C14.8066 42.9862 17.3334 39.9533 20.75 38.6606V45.1136C18.7576 45.5197 17.1691 46.9935 16.5492 48.9004L14.1789 46.6087ZM18.5 50.625C18.5 48.7643 20.0142 47.25 21.875 47.25C23.7358 47.25 25.25 48.7643 25.25 50.625V54H27.5V50.625C27.5 47.9092 25.5639 45.6367 23 45.1136V38.0025L23.7267 37.8214L29.75 50.8725V61.6613L18.5 50.787V50.625ZM21.875 25.9762V30.375C20.6341 30.375 19.625 29.3659 19.625 28.125C19.625 26.8841 20.6341 25.875 21.875 25.875H21.8818C21.8818 25.9088 21.875 25.9425 21.875 25.9762ZM22.3092 23.625H21.875C21.272 23.625 20.6994 23.7488 20.174 23.9636L20.0649 23.6351C19.7724 22.7599 19.625 21.8498 19.625 20.9295C19.625 16.2124 23.4624 12.375 28.1795 12.375H33.5716C38.2876 12.375 42.125 16.2124 42.125 20.9295C42.125 21.8498 41.9776 22.7599 41.6862 23.6351L41.576 23.9648C41.0506 23.7488 40.478 23.625 39.875 23.625H38.75H38.3641C34.7101 23.625 31.2744 22.2457 28.625 19.7539V16.875H26.375V19.5548L25.6055 19.9395C24.0395 20.7225 22.892 22.05 22.3092 23.625ZM39.875 25.875C41.1159 25.875 42.125 26.8841 42.125 28.125C42.125 29.3659 41.1159 30.375 39.875 30.375V25.875ZM37.625 30.375C37.625 34.0976 34.5976 37.125 30.875 37.125C27.1524 37.125 24.125 34.0976 24.125 30.375V25.9762C24.125 24.2606 25.0779 22.7182 26.6124 21.951L27.2964 21.609C30.1528 24.201 33.7696 25.6894 37.625 25.8581V30.375ZM26.3547 38.1442C27.1681 38.619 28.058 38.9756 29.0075 39.177L27.7779 41.2267L26.3547 38.1442ZM30.875 47.9396L28.9175 43.6984L30.875 40.4359L32.8325 43.6984L30.875 47.9396ZM33.9733 41.2267L32.7436 39.177C33.6931 38.9756 34.583 38.6201 35.3964 38.1442L33.9733 41.2267ZM10.9648 9.126C14.6739 5.41688 19.6036 3.375 24.8495 3.375C27.8814 3.375 30.9189 4.09162 33.6313 5.44837L36.5 6.88275L39.3699 5.44837C42.0822 4.09162 45.1186 3.375 48.1505 3.375C53.3952 3.375 58.3261 5.41688 62.0353 9.126C66.5038 13.5956 68.9934 19.5086 69.1036 25.875H57.6095L53.2636 9.9405L48.5668 31.0759L47.3866 28.125H44.375C44.375 27.1114 44.0263 26.1855 43.4581 25.4329L43.8215 24.3461C44.1882 23.2402 44.375 22.0916 44.375 20.9295C44.375 14.9715 39.5274 10.125 33.5705 10.125H28.1784C22.2226 10.125 17.375 14.9715 17.375 20.9295C17.375 21.8407 17.4943 22.7441 17.7215 23.625H16.9452L12.2191 14.1739L10.0749 31.3301L8.02962 25.875H3.893C3.9875 19.548 6.4805 13.6103 10.9648 9.126ZM3.97062 28.125H6.47038L11.1762 40.6699L13.532 21.8261L15.5548 25.875H18.0005C17.6135 26.5399 17.375 27.3015 17.375 28.125C17.375 30.6068 19.3932 32.625 21.875 32.625H22.1709C22.4465 33.6893 22.9077 34.6781 23.5254 35.5522L21.3328 36.1001C16.9745 37.1903 13.5444 40.5551 12.2799 44.7739L11.3068 43.8334C7.03288 39.7001 4.43075 34.0751 3.97062 28.125ZM36.5 68.1851L32 63.8348V50.8725L36.5 41.1221V47.457C35.1939 47.9227 34.25 49.1603 34.25 50.625C34.25 52.4857 35.7643 54 37.625 54C39.4857 54 41 52.4857 41 50.625C41 49.1603 40.0561 47.9227 38.75 47.457V38.0025L39.8716 38.2826C43.3726 39.159 46.1232 41.7757 47.2224 45.1777C44.1084 47.862 42.125 51.8254 42.125 56.25C42.125 58.1828 42.5109 60.0244 43.1949 61.7141L36.5 68.1851ZM56.75 68.625C49.9269 68.625 44.375 63.0731 44.375 56.25C44.375 49.4269 49.9269 43.875 56.75 43.875C63.5731 43.875 69.125 49.4269 69.125 56.25C69.125 63.0731 63.5731 68.625 56.75 68.625Z" fill="black"/>
<path d="M27.5 29.25C28.1213 29.25 28.625 28.7463 28.625 28.125C28.625 27.5037 28.1213 27 27.5 27C26.8787 27 26.375 27.5037 26.375 28.125C26.375 28.7463 26.8787 29.25 27.5 29.25Z" fill="black"/>
<path d="M34.25 29.25C34.8713 29.25 35.375 28.7463 35.375 28.125C35.375 27.5037 34.8713 27 34.25 27C33.6287 27 33.125 27.5037 33.125 28.125C33.125 28.7463 33.6287 29.25 34.25 29.25Z" fill="black"/>
<path d="M28.5068 30.9972L26.4941 32.0041L26.6123 32.2403C27.4245 33.866 29.058 34.8751 30.8749 34.8751C32.6918 34.8751 34.3253 33.866 35.1375 32.2403L35.2556 32.003L33.243 30.9961L33.1249 31.2346C32.6963 32.0918 31.8345 32.6251 30.8749 32.6251C29.9153 32.6251 29.0535 32.0918 28.6249 31.2346L28.5068 30.9972Z" fill="black"/>
</g>
</g>
</g>
<defs>
<clipPath id="clip0_2_4872">
<rect width="72" height="72" fill="white" transform="translate(0.5)"/>
</clipPath>
<clipPath id="clip1_2_4872">
<rect width="69.75" height="70.1899" fill="white" transform="translate(1.625 1.125)"/>
</clipPath>
<clipPath id="clip2_2_4872">
<rect width="67.5" height="67.5" fill="white" transform="translate(2.75 2.25)"/>
</clipPath>
<clipPath id="clip3_2_4872">
<rect width="22.815" height="28.9912" fill="white" transform="translate(2.77344 18)"/>
</clipPath>
<clipPath id="clip4_2_4872">
<rect width="34.065" height="30.915" fill="white" transform="translate(36.1621 14.625)"/>
</clipPath>
<clipPath id="clip5_2_4872">
<rect width="67.5" height="33.75" fill="white" transform="translate(2.75 2.25)"/>
</clipPath>
<clipPath id="clip6_2_4872">
<rect width="24.75" height="14.4225" fill="white" transform="translate(18.5 11.25)"/>
</clipPath>
<clipPath id="clip7_2_4872">
<rect width="6.4575" height="12.375" fill="white" transform="translate(27.6465 38.25)"/>
</clipPath>
<clipPath id="clip8_2_4872">
<rect width="17.6512" height="33.2437" fill="white" transform="translate(30.875 36.5063)"/>
</clipPath>
<clipPath id="clip9_2_4872">
<rect width="13.5" height="27.81" fill="white" transform="translate(17.375 36.5063)"/>
</clipPath>
<clipPath id="clip10_2_4872">
<rect width="8.92125" height="14.1413" fill="white" transform="translate(12.9531 37.125)"/>
</clipPath>
<clipPath id="clip11_2_4872">
<rect width="6.51375" height="7.43625" fill="white" transform="translate(24.3613 36.1914)"/>
</clipPath>
<clipPath id="clip12_2_4872">
<rect width="6.51375" height="7.43625" fill="white" transform="translate(30.875 36.1914)"/>
</clipPath>
<clipPath id="clip13_2_4872">
<rect width="27" height="27" fill="white" transform="translate(43.25 42.75)"/>
</clipPath>
<clipPath id="clip14_2_4872">
<rect width="4.5" height="4.5" fill="white" transform="translate(35.375 48.375)"/>
</clipPath>
<clipPath id="clip15_2_4872">
<rect width="13.5" height="13.5" fill="white" transform="translate(50 49.5)"/>
</clipPath>
<clipPath id="clip16_2_4872">
<rect width="4.59" height="6.75" fill="white" transform="translate(38.6602 24.75)"/>
</clipPath>
<clipPath id="clip17_2_4872">
<rect width="15.75" height="18" fill="white" transform="translate(23 20.25)"/>
</clipPath>
<clipPath id="clip18_2_4872">
<rect width="4.635" height="6.75" fill="white" transform="translate(18.5 24.75)"/>
</clipPath>
<clipPath id="clip19_2_4872">
<rect width="69.75" height="70.1899" fill="white" transform="translate(1.625 1.125)"/>
</clipPath>
</defs>
</svg>
